<?xml version="1.0" standalone="no"?>
<!DOCTYPE svg PUBLIC "-//W3C//DTD SVG 20010904//EN"
 "http://www.w3.org/TR/2001/REC-SVG-20010904/DTD/svg10.dtd">
<svg version="1.0" xmlns="http://www.w3.org/2000/svg"
 width="512.000000pt" height="512.000000pt" viewBox="0 0 512.000000 512.000000"
 preserveAspectRatio="xMidYMid meet">
<metadata>
Created by potrace 1.16, written by Peter Selinger 2001-2019
</metadata>
<g transform="translate(0.000000,512.000000) scale(0.100000,-0.100000)"
fill="#000000" stroke="none">
<path d="M3120 4130 l0 -569 -37 -7 c-252 -43 -430 -84 -613 -140 -1183 -365
-2002 -1253 -2374 -2574 -44 -156 -96 -375 -96 -406 0 -9 32 26 72 78 109 142
178 221 311 357 598 607 1346 920 2367 991 80 5 196 10 258 10 l112 0 0 -580
c0 -319 3 -580 8 -580 11 0 1992 1984 1992 1995 0 11 -1981 1995 -1993 1995
-4 0 -7 -256 -7 -570z"/>
</g>
</svg>
