<?xml version="1.0" standalone="no"?>
<!DOCTYPE svg PUBLIC "-//W3C//DTD SVG 20010904//EN"
 "http://www.w3.org/TR/2001/REC-SVG-20010904/DTD/svg10.dtd">
<svg version="1.0" xmlns="http://www.w3.org/2000/svg"
 width="225.000000pt" height="225.000000pt" viewBox="0 0 225.000000 225.000000"
 preserveAspectRatio="xMidYMid meet">
<metadata>
Created by potrace 1.16, written by Peter Selinger 2001-2019
</metadata>
<g transform="translate(0.000000,225.000000) scale(0.100000,-0.100000)"
fill="#000000" stroke="none">
<path d="M580 2024 c-157 -25 -240 -64 -336 -159 -112 -110 -164 -233 -164
-390 0 -99 19 -176 67 -269 33 -64 86 -120 502 -538 256 -258 470 -468 476
-468 17 0 918 910 955 963 94 141 119 329 64 493 -55 164 -220 315 -389 355
-28 6 -88 11 -135 12 -157 0 -275 -51 -410 -179 l-85 -82 -85 82 c-91 86 -170
134 -260 159 -60 17 -160 27 -200 21z m121 -144 c100 -19 155 -55 294 -191
l131 -128 124 124 c140 141 199 178 308 197 224 38 435 -117 473 -349 13 -83
-6 -190 -47 -262 -16 -27 -195 -215 -443 -464 l-416 -417 -421 422 c-459 461
-460 463 -484 599 -36 207 111 420 320 465 71 16 95 16 161 4z"/>
</g>
</svg>
